<svg id="Layer_1" data-name="Layer 1" xmlns="http://www.w3.org/2000/svg" viewBox="0 0 262 85"><defs><style>.cls-1{fill:#fff;}</style></defs><title>Bueteshop-footer-logo</title><polygon class="cls-1" points="14.55 74.21 14.55 74.21 14.55 74.22 14.55 74.21"/><path class="cls-1" d="M48.46,29.64V47h0c1.85-2.68,7.16-3.79,7.42-3.83a11.63,11.63,0,0,0,8.67-11.78V12.89C47.82,16,48.42,29.08,48.46,29.64Z"/><path class="cls-1" d="M37.42,40.5l.38,14.73c0,4,0,9-2,13-2.68,4.86-11.93,8.37-21.2,6a21.34,21.34,0,0,0,20.19,2c7.6-3.19,12.32-11,12.32-20.26l-.23-25.86a17.19,17.19,0,0,1,8.89-15.58C47.72,17.37,37.42,24.18,37.42,40.5Z"/><path class="cls-1" d="M42.6.09A42.38,42.38,0,0,0,11.91,71.73C15.26,75,31,73.75,34.26,68c-6.82.07-11.11,1.22-12.93-2.06s-.14-6.64-.32-7.72a1.6,1.6,0,0,0-1.47-1.51c-.69-.12-1.25-1.38-.45-2.44a2.64,2.64,0,0,1,2.34-1.39c1.08,0,1.26.29,1.36.12s-1.2-1.36-2.13-1.82a6,6,0,0,1-2.43-2.29,1.82,1.82,0,0,1,.65-2.09c.74-.53,1.48-2,1-2.84S18,42.48,17.51,41.85s-2.09-2.93-1-4.6,4.58-3.66,6-5a33.81,33.81,0,0,0,3.66-3.7,5.13,5.13,0,0,1-3.53-1.89c-.05-.07.05-.14.12-.11a9.93,9.93,0,0,0,4,1.12,2.25,2.25,0,0,0,.49-1.47A26.83,26.83,0,0,1,31.28,4,40.13,40.13,0,1,1,49.2,82.08c-1-1.8-2.89-5-3.39-5.79l-.45-.76A38.2,38.2,0,0,1,40.6,75l-1.05-.19a20.17,20.17,0,0,1-4.38,2.53A22.08,22.08,0,0,1,26.59,79c-.21,0-.42,0-.63,0a22.67,22.67,0,0,1-7.07-1.36A42.4,42.4,0,1,0,42.6.09Z"/><path class="cls-1" d="M48.51,56c0,.69,0,1.38-.09,2.07l-.09.92c0,.31-.08.61-.13.92-.11.73-.24,1.44-.41,2.15v0a23.55,23.55,0,0,1-.78,2.6.49.49,0,0,1,0,.11c-.17.48-.36,1-.56,1.41A21.55,21.55,0,0,1,41,73.61C48.65,75,54.55,74,58.53,70.54c6.25-5.4,6-15.17,5.82-18v-.14a8.87,8.87,0,0,0-2.27-5.7,6.05,6.05,0,0,0-5.53-2c-6.54,1.46-7.86,3.6-8,7v1.17Z"/><path class="cls-1" d="M119,54.25v7.62l-.53,0-.52,0V54.25c-.63,0-1.07,0-1.33,0l-1.3.12,0-.36,0-.36h6.18l0,.36,0,.36-1.12-.1C119.88,54.26,119.42,54.25,119,54.25Z"/><path class="cls-1" d="M123.23,61.87V56.14l.48,0,.48,0v1.2l.06-.14a3.22,3.22,0,0,1,.67-.79,1.36,1.36,0,0,1,.84-.33.92.92,0,0,1,.37.06l-.17,1-.25-.1a.79.79,0,0,0-.31-.09A1.25,1.25,0,0,0,125,57a.84.84,0,0,0-.35.22,1.66,1.66,0,0,0-.36.66,4,4,0,0,0-.08.86v3.1l-.48,0Z"/><path class="cls-1" d="M132.17,60.64v.61a3.71,3.71,0,0,1-1,.52,3.22,3.22,0,0,1-1.08.18,2.71,2.71,0,0,1-2-.79,2.91,2.91,0,0,1-.78-2.15,3.09,3.09,0,0,1,.69-2.1,2.6,2.6,0,0,1,2.05-.84,2.2,2.2,0,0,1,1.71.7,3.21,3.21,0,0,1,.72,2.24L130,59h-1.69a2.83,2.83,0,0,0,.49,1.74,1.87,1.87,0,0,0,1.58.74,2.19,2.19,0,0,0,1.07-.28A3.91,3.91,0,0,0,132.17,60.64Zm-3.84-2.11h3.18a3,3,0,0,0-.29-1.44,1.27,1.27,0,0,0-1.2-.65,1.47,1.47,0,0,0-1.27.66A2.39,2.39,0,0,0,128.33,58.53Z"/><path class="cls-1" d="M138.4,58.08V61.2c0,.17.13.25.32.25a1.18,1.18,0,0,0,.35-.05v.27l-.18.06a1.26,1.26,0,0,1-.25.07l-.32,0a.88.88,0,0,1-.57-.17.78.78,0,0,1-.26-.56l-.11.11a2.46,2.46,0,0,1-1.78.75,1.66,1.66,0,0,1-1.13-.4,1.35,1.35,0,0,1-.47-1.06,1.38,1.38,0,0,1,.69-1.3,5,5,0,0,1,1.53-.42,4.43,4.43,0,0,0,1-.24.58.58,0,0,0,.29-.56,1.27,1.27,0,0,0-1.4-1.4,1.66,1.66,0,0,0-1,.31,1.08,1.08,0,0,0-.42.51h-.13v-.67a4,4,0,0,1,.94-.49,2.94,2.94,0,0,1,1-.16A1.75,1.75,0,0,1,138.4,58.08Zm-1,2.54V58.88L137,59a9.56,9.56,0,0,0-1.32.32,1.09,1.09,0,0,0-.71,1,1.06,1.06,0,0,0,.31.83,1.17,1.17,0,0,0,.86.29,1.15,1.15,0,0,0,.5-.14,1.76,1.76,0,0,0,.46-.31l.2-.2Q137.44,60.68,137.44,60.62Z"/><path class="cls-1" d="M140.79,60.7h.1a2.09,2.09,0,0,0,.59.63,1.36,1.36,0,0,0,.78.25,1.2,1.2,0,0,0,.82-.31,1,1,0,0,0,.35-.78c0-.49-.47-.87-1.41-1.15s-1.41-.77-1.41-1.5a1.62,1.62,0,0,1,.55-1.31,2.09,2.09,0,0,1,1.4-.46,3,3,0,0,1,.8.1,2,2,0,0,1,.55.21,4.7,4.7,0,0,0-.28.85h-.11a1.35,1.35,0,0,0-.41-.55.92.92,0,0,0-.61-.24,1.15,1.15,0,0,0-.78.26.94.94,0,0,0-.31.73q0,.72,1.41,1.17c1,.31,1.42.79,1.42,1.46a1.7,1.7,0,0,1-.71,1.43A2.41,2.41,0,0,1,142,62a3.21,3.21,0,0,1-.78-.1,2.7,2.7,0,0,1-.71-.28c.05-.14.09-.29.14-.44A2.26,2.26,0,0,0,140.79,60.7Z"/><path class="cls-1" d="M151,56.13v5.73l-.48,0-.48,0v-1a2,2,0,0,1-1.9,1.12,1.9,1.9,0,0,1-1.49-.54,2.61,2.61,0,0,1-.48-1.75V56.14l.47,0,.48,0v3.23a2.75,2.75,0,0,0,.33,1.51,1.24,1.24,0,0,0,1.12.5,1.29,1.29,0,0,0,1.2-.65,2.59,2.59,0,0,0,.27-1.28v-3.3l.48,0Z"/><path class="cls-1" d="M153.49,61.87V56.14l.48,0,.48,0v1.2l.06-.14a2.84,2.84,0,0,1,.67-.79,1.31,1.31,0,0,1,.83-.33.89.89,0,0,1,.37.06l-.16,1A1.35,1.35,0,0,1,156,57a.82.82,0,0,0-.32-.09,1.35,1.35,0,0,0-.42.08.8.8,0,0,0-.34.22,1.44,1.44,0,0,0-.36.66,3.44,3.44,0,0,0-.08.86v3.1l-.48,0Z"/><path class="cls-1" d="M162.43,60.64v.61a3.76,3.76,0,0,1-1,.52,3.21,3.21,0,0,1-1.07.18,2.73,2.73,0,0,1-2.05-.79,2.91,2.91,0,0,1-.78-2.15,3,3,0,0,1,.7-2.1,2.57,2.57,0,0,1,2-.84,2.2,2.2,0,0,1,1.71.7A3.21,3.21,0,0,1,162.7,59l-2.43,0h-1.68a2.83,2.83,0,0,0,.49,1.74,1.85,1.85,0,0,0,1.58.74,2.16,2.16,0,0,0,1.06-.28A4,4,0,0,0,162.43,60.64Zm-3.84-2.11h3.18a2.86,2.86,0,0,0-.3-1.44,1.27,1.27,0,0,0-1.2-.65,1.49,1.49,0,0,0-1.27.66A2.39,2.39,0,0,0,158.59,58.53Z"/><path class="cls-1" d="M168.05,59a2.71,2.71,0,0,1,.87-2.08,3,3,0,0,1,2.17-.8,2.69,2.69,0,0,1,2,.79,3,3,0,0,1,.77,2.13,2.91,2.91,0,0,1-.76,2,2.84,2.84,0,0,1-2.23.91,2.68,2.68,0,0,1-2-.82A3,3,0,0,1,168.05,59Zm3-2.51a1.68,1.68,0,0,0-1.56.86,3.54,3.54,0,0,0-.42,1.83,3,3,0,0,0,.42,1.67,1.61,1.61,0,0,0,1.45.78,1.56,1.56,0,0,0,1.45-1,3.59,3.59,0,0,0,.39-1.68,3.38,3.38,0,0,0-.35-1.64A1.49,1.49,0,0,0,171.08,56.44Z"/><path class="cls-1" d="M175.94,61.87V56.58h-.83a.63.63,0,0,0,0-.23.65.65,0,0,0,0-.22h.81l0-.1a4.7,4.7,0,0,1,.92-2.5,1.74,1.74,0,0,1,1.39-.66h.24a2.35,2.35,0,0,0-.05.45c0,.2,0,.36,0,.51l-.06.05-.24-.12a1.31,1.31,0,0,0-.25,0h-.17a.87.87,0,0,0-.77.33,1.54,1.54,0,0,0-.23.91,2.87,2.87,0,0,0,0,.57,6,6,0,0,0,.14.61h1.19c0,.11,0,.18,0,.22s0,.13,0,.23H176.9v5.28l-.48,0Z"/><path class="cls-1" d="M183.6,55l1-.37v1.55h1.26c0,.11,0,.19,0,.25a1.91,1.91,0,0,0,0,.2h-1.26V60a3.22,3.22,0,0,0,.12,1,.75.75,0,0,0,.76.51l.29,0,.25,0v.29c-.19.07-.36.12-.51.16a2,2,0,0,1-.5.05,1.22,1.22,0,0,1-1-.38,2.4,2.4,0,0,1-.35-1.5V56.58h-.74a1.13,1.13,0,0,0,0-.23,1.18,1.18,0,0,0,0-.22h.74Z"/><path class="cls-1" d="M187.58,61.87v-9l.48,0,.48,0v4.36a2.32,2.32,0,0,1,.81-.86,2.11,2.11,0,0,1,1.12-.3,1.74,1.74,0,0,1,1.47.58,2.82,2.82,0,0,1,.45,1.75v3.46l-.47,0-.48,0V58.68a2.9,2.9,0,0,0-.28-1.49,1.15,1.15,0,0,0-1-.5c-1.05,0-1.57.64-1.57,1.91v3.26l-.48,0Z"/><path class="cls-1" d="M199.22,60.64v.61a3.76,3.76,0,0,1-1,.52,3.21,3.21,0,0,1-1.07.18,2.73,2.73,0,0,1-2.05-.79,2.91,2.91,0,0,1-.78-2.15,3,3,0,0,1,.7-2.1,2.57,2.57,0,0,1,2-.84,2.2,2.2,0,0,1,1.71.7,3.21,3.21,0,0,1,.72,2.24l-2.43,0h-1.68a2.83,2.83,0,0,0,.49,1.74,1.85,1.85,0,0,0,1.58.74,2.16,2.16,0,0,0,1.06-.28A4,4,0,0,0,199.22,60.64Zm-3.84-2.11h3.18a2.86,2.86,0,0,0-.3-1.44,1.27,1.27,0,0,0-1.2-.65,1.49,1.49,0,0,0-1.27.66A2.39,2.39,0,0,0,195.38,58.53Z"/><path class="cls-1" d="M205.5,61.82V53.67h2.41a4.31,4.31,0,0,1,2,.37,1.36,1.36,0,0,1,.64,1.28,1.86,1.86,0,0,1-.53,1.36,2.69,2.69,0,0,1-1.36.76,2.49,2.49,0,0,1,1.44.42,1.66,1.66,0,0,1,.75,1.46,2.34,2.34,0,0,1-1.07,2,2.63,2.63,0,0,1-1.21.42,10.9,10.9,0,0,1-1.32.06Zm1.05-7.71v3.15h.53a6.54,6.54,0,0,0,.84,0,2.2,2.2,0,0,0,.68-.2,1.45,1.45,0,0,0,.92-1.45,1.25,1.25,0,0,0-.51-1.13,2.82,2.82,0,0,0-1.51-.33Zm0,3.62v3.65h1.2a2,2,0,0,0,1.45-.52,1.74,1.74,0,0,0,.56-1.34,1.55,1.55,0,0,0-.69-1.42,3.44,3.44,0,0,0-1.79-.37Z"/><path class="cls-1" d="M217.42,60.64v.61a3.71,3.71,0,0,1-1,.52,3.31,3.31,0,0,1-1.08.18,2.73,2.73,0,0,1-2-.79,2.91,2.91,0,0,1-.78-2.15,3.09,3.09,0,0,1,.7-2.1,2.57,2.57,0,0,1,2-.84,2.22,2.22,0,0,1,1.72.7,3.21,3.21,0,0,1,.71,2.24l-2.43,0h-1.68a2.83,2.83,0,0,0,.49,1.74,1.85,1.85,0,0,0,1.58.74,2.16,2.16,0,0,0,1.06-.28A4,4,0,0,0,217.42,60.64Zm-3.84-2.11h3.18a2.86,2.86,0,0,0-.3-1.44,1.26,1.26,0,0,0-1.2-.65,1.46,1.46,0,0,0-1.26.66A2.39,2.39,0,0,0,213.58,58.53Z"/><path class="cls-1" d="M223.64,58.08V61.2c0,.17.13.25.33.25a1.08,1.08,0,0,0,.34-.05v.27l-.17.06a1.49,1.49,0,0,1-.25.07l-.33,0a.87.87,0,0,1-.56-.17.75.75,0,0,1-.27-.56l-.1.11a2.46,2.46,0,0,1-1.78.75,1.66,1.66,0,0,1-1.13-.4,1.35,1.35,0,0,1-.47-1.06,1.39,1.39,0,0,1,.68-1.3,5,5,0,0,1,1.54-.42,4.6,4.6,0,0,0,1-.24.57.57,0,0,0,.28-.56,1.43,1.43,0,0,0-.36-1,1.41,1.41,0,0,0-1-.36,1.65,1.65,0,0,0-1,.31,1,1,0,0,0-.42.51h-.13v-.67a4,4,0,0,1,.94-.49,2.92,2.92,0,0,1,1-.16C223,56.07,223.64,56.74,223.64,58.08Zm-.95,2.54V58.88l-.42.08a8.8,8.8,0,0,0-1.32.32,1.18,1.18,0,0,0-.41,1.88,1.21,1.21,0,0,0,.87.29,1.19,1.19,0,0,0,.5-.14,1.7,1.7,0,0,0,.45-.31l.21-.2Q222.69,60.68,222.69,60.62Z"/><path class="cls-1" d="M230.94,56.13v5.73l-.48,0-.47,0v-1A2,2,0,0,1,228.08,62a1.91,1.91,0,0,1-1.49-.54,2.61,2.61,0,0,1-.48-1.75V56.14l.48,0,.48,0v3.23a2.85,2.85,0,0,0,.32,1.51,1.26,1.26,0,0,0,1.12.5,1.29,1.29,0,0,0,1.2-.65,2.58,2.58,0,0,0,.28-1.28v-3.3l.47,0Z"/><path class="cls-1" d="M233.4,55l.95-.37v1.55h1.27c0,.11,0,.19,0,.25a1.91,1.91,0,0,0,0,.2h-1.27V60a3.22,3.22,0,0,0,.12,1,.77.77,0,0,0,.77.51l.29,0,.25,0v.29a5,5,0,0,1-.52.16,1.89,1.89,0,0,1-.49.05,1.24,1.24,0,0,1-1-.38,2.47,2.47,0,0,1-.34-1.5V56.58h-.74a1.13,1.13,0,0,0,0-.23,1.18,1.18,0,0,0,0-.22h.74Z"/><path class="cls-1" d="M239.19,61.81l-2.42-5.68.58,0,.56,0c.21.66.47,1.36.77,2.11s.64,1.52,1,2.33c.26-.52.56-1.23.92-2.13.3-.74.59-1.51.88-2.31l.39,0,.38,0c-.37.84-.83,1.84-1.36,3s-.93,2.06-1.29,2.9c-.49,1.11-.89,2.07-1.21,2.87l-.41,0-.4,0Z"/><path class="cls-1" d="M111.4,35.72a5.32,5.32,0,0,1,2.9,5.11,5.43,5.43,0,0,1-2.2,4.75,9.79,9.79,0,0,1-5.78,1.57H97.83a.37.37,0,0,1-.27-.12.37.37,0,0,1-.11-.27V25.19a.37.37,0,0,1,.11-.27.36.36,0,0,1,.27-.11h8.24A9.88,9.88,0,0,1,112,26.27q2,1.47,2,4.76a4.73,4.73,0,0,1-2.55,4.5C111.27,35.59,111.27,35.66,111.4,35.72Zm-8.65-6.22v4a.14.14,0,0,0,.16.16h3.16a3.18,3.18,0,0,0,2-.56,1.89,1.89,0,0,0,.7-1.58,2,2,0,0,0-.7-1.63,3.12,3.12,0,0,0-2-.57h-3.16A.14.14,0,0,0,102.75,29.5ZM108.3,42a2.41,2.41,0,0,0,0-3.38,3,3,0,0,0-2-.59h-3.41a.14.14,0,0,0-.16.16v4.24a.14.14,0,0,0,.16.16h3.41A3,3,0,0,0,108.3,42Z"/><path class="cls-1" d="M120.29,46.43a7.16,7.16,0,0,1-3-2.76,7.81,7.81,0,0,1-1.07-4.12V25.19a.38.38,0,0,1,.38-.38h4.53a.38.38,0,0,1,.38.38V39.55a3.35,3.35,0,0,0,.88,2.41,3.11,3.11,0,0,0,2.35.91,3.05,3.05,0,0,0,2.31-.91,3.31,3.31,0,0,0,.88-2.41V25.19a.37.37,0,0,1,.11-.27.33.33,0,0,1,.27-.11h4.53a.38.38,0,0,1,.39.38V39.55a7.9,7.9,0,0,1-1.06,4.12,7,7,0,0,1-3,2.76,10.69,10.69,0,0,1-8.9,0Z"/><path class="cls-1" d="M151.18,29.23a.4.4,0,0,1-.27.11h-10a.14.14,0,0,0-.16.16v3.92a.14.14,0,0,0,.16.16h6.41a.37.37,0,0,1,.27.11.4.4,0,0,1,.11.27V37.7a.38.38,0,0,1-.38.38h-6.41a.14.14,0,0,0-.16.16v4.21a.14.14,0,0,0,.16.16h10a.37.37,0,0,1,.27.12.37.37,0,0,1,.11.27v3.76a.37.37,0,0,1-.11.27.37.37,0,0,1-.27.12h-15.1a.34.34,0,0,1-.27-.12.33.33,0,0,1-.11-.27V25.19a.38.38,0,0,1,.38-.38h15.1a.36.36,0,0,1,.27.11.37.37,0,0,1,.11.27V29A.41.41,0,0,1,151.18,29.23Z"/><path class="cls-1" d="M169.46,24.92a.34.34,0,0,1,.12.27V29a.37.37,0,0,1-.12.27.37.37,0,0,1-.27.11h-5.58a.14.14,0,0,0-.16.16V46.76a.37.37,0,0,1-.11.27.37.37,0,0,1-.27.12h-4.54a.37.37,0,0,1-.27-.12.37.37,0,0,1-.11-.27V29.53a.14.14,0,0,0-.16-.16H152.6a.37.37,0,0,1-.27-.11.36.36,0,0,1-.11-.27v-3.8a.38.38,0,0,1,.38-.38h16.59A.33.33,0,0,1,169.46,24.92Z"/><path class="cls-1" d="M186.83,29.23a.41.41,0,0,1-.28.11h-10a.14.14,0,0,0-.16.16v3.92a.14.14,0,0,0,.16.16H183a.38.38,0,0,1,.38.38V37.7a.37.37,0,0,1-.11.27.4.4,0,0,1-.27.11h-6.42a.14.14,0,0,0-.16.16v4.21a.14.14,0,0,0,.16.16h10a.38.38,0,0,1,.28.12.37.37,0,0,1,.11.27v3.76a.37.37,0,0,1-.11.27.38.38,0,0,1-.28.12H171.46a.34.34,0,0,1-.27-.12.33.33,0,0,1-.11-.27V25.19a.38.38,0,0,1,.38-.38h15.09a.38.38,0,0,1,.39.38V29A.41.41,0,0,1,186.83,29.23Z"/><path class="cls-1" d="M190.88,45.77a5.22,5.22,0,0,1-2.09-4.34v-1a.28.28,0,0,1,.32-.32h1.56a.29.29,0,0,1,.32.32v.86a3.55,3.55,0,0,0,1.53,3,7.06,7.06,0,0,0,4.25,1.13,5.74,5.74,0,0,0,3.73-1,3.38,3.38,0,0,0,1.28-2.76,3.14,3.14,0,0,0-.59-1.91,5.93,5.93,0,0,0-1.82-1.5,33,33,0,0,0-3.46-1.63,39,39,0,0,1-3.72-1.67,6.16,6.16,0,0,1-2.14-1.86,4.76,4.76,0,0,1-.81-2.85A5,5,0,0,1,191.1,26a8,8,0,0,1,5.12-1.48,8.58,8.58,0,0,1,5.59,1.66,5.39,5.39,0,0,1,2,4.4v.71c0,.21-.1.31-.32.31h-1.59c-.22,0-.32-.1-.32-.31v-.58a3.76,3.76,0,0,0-1.45-3,6.23,6.23,0,0,0-4-1.18,5.7,5.7,0,0,0-3.48.92,3.16,3.16,0,0,0-1.21,2.68A2.93,2.93,0,0,0,192,32a4.94,4.94,0,0,0,1.69,1.31c.73.37,1.87.86,3.4,1.45a32.15,32.15,0,0,1,3.75,1.79,7.56,7.56,0,0,1,2.3,2,4.83,4.83,0,0,1,.87,2.92,5.19,5.19,0,0,1-2,4.27,8.44,8.44,0,0,1-5.48,1.6A9,9,0,0,1,190.88,45.77Z"/><path class="cls-1" d="M221,24.81h1.63a.28.28,0,0,1,.32.31V46.83a.29.29,0,0,1-.32.32H221a.29.29,0,0,1-.32-.32V37c0-.09,0-.13-.13-.13H210.36a.12.12,0,0,0-.13.13v9.8a.28.28,0,0,1-.31.32h-1.63a.29.29,0,0,1-.32-.32V25.12a.28.28,0,0,1,.32-.31h1.63a.27.27,0,0,1,.31.31v9.67a.12.12,0,0,0,.13.13h10.18c.09,0,.13,0,.13-.13V25.12A.28.28,0,0,1,221,24.81Z"/><path class="cls-1" d="M231,46.48a6.58,6.58,0,0,1-2.67-2.61,7.73,7.73,0,0,1-.94-3.87V32a7.73,7.73,0,0,1,.94-3.87,6.49,6.49,0,0,1,2.67-2.6,9,9,0,0,1,8,0,6.4,6.4,0,0,1,2.68,2.6,7.73,7.73,0,0,1,.94,3.87V40a7.73,7.73,0,0,1-.94,3.87,6.48,6.48,0,0,1-2.68,2.61,9.13,9.13,0,0,1-8,0ZM238.83,44a5.27,5.27,0,0,0,1.47-3.9V31.92A5.33,5.33,0,0,0,238.83,28a5.23,5.23,0,0,0-3.89-1.48A5.16,5.16,0,0,0,231.08,28a5.33,5.33,0,0,0-1.47,3.91v8.17a5.49,5.49,0,0,0,9.22,3.9Z"/><path class="cls-1" d="M260.1,26.5A6.15,6.15,0,0,1,261.81,31a6,6,0,0,1-1.74,4.47,6.33,6.33,0,0,1-4.58,1.69h-6.22c-.09,0-.13,0-.13.13v9.51a.29.29,0,0,1-.32.32h-1.63a.29.29,0,0,1-.32-.32V25.09a.29.29,0,0,1,.32-.32h8.4A6.07,6.07,0,0,1,260.1,26.5Zm-1.71,7.64a4.12,4.12,0,0,0,1.18-3.08,4.22,4.22,0,0,0-1.18-3.13,4.15,4.15,0,0,0-3.06-1.18h-6.06c-.09,0-.13,0-.13.13v8.3c0,.08,0,.12.13.12h6.06A4.13,4.13,0,0,0,258.39,34.14Z"/></svg>