<?xml version="1.0" encoding="utf-8"?>
<!-- Generator: Adobe Illustrator 25.4.1, SVG Export Plug-In . SVG Version: 6.00 Build 0)  -->
<svg version="1.1" id="Layer_1" xmlns="http://www.w3.org/2000/svg" xmlns:xlink="http://www.w3.org/1999/xlink" x="0px" y="0px"
	 viewBox="0 0 56.5 52" style="enable-background:new 0 0 56.5 52;" xml:space="preserve">
<style type="text/css">
	.st0{fill:#1877F2;}
	.st1{display:none;fill:#FCFCFC;}
	.st2{fill:#FFFFFF;}
</style>
<circle class="st0" cx="29.3" cy="25.3" r="22.6"/>
<path class="st1" d="M36.6,13H41l-9.6,11l11.3,15h-8.9l-7-9.1l-8,9.1h-4.4l10.3-11.8L13.9,13H23l6.3,8.3L36.6,13z M35,36.4h2.4
	L21.7,15.5h-2.6L35,36.4z"/>
<path class="st2" d="M32.3,17h5v-6h-5c-3.9,0-7,3.1-7,7v3h-4v6h4v16h6V27h5l1-6h-6v-3C31.3,17.5,31.7,17,32.3,17z"/>
</svg>
