<svg id="Layer_1" data-name="Layer 1" xmlns="http://www.w3.org/2000/svg" viewBox="0 0 500 162"><defs><style>.cls-1{fill:#1a7b80;}.cls-2{fill:#8bc53f;}.cls-3{fill:#00a495;}.cls-4{fill:#004268;}</style></defs><title>Bueteshop-Logo_Final</title><polygon class="cls-1" points="29.66 141 29.66 141 29.67 141.01 29.66 141"/><path class="cls-2" d="M93.82,56.66V89.47h0c3.49-5.08,13.54-7.17,14-7.25,17.29-5,16.45-21.58,16.41-22.29V25C92.62,30.92,93.76,55.6,93.82,56.66Z"/><path class="cls-3" d="M72.94,77.22l.72,27.87c0,7.48,0,17-3.87,24.57C64.72,138.85,47.2,145.5,29.66,141c12.17,7.95,26.13,8.93,38.2,3.86,14.38-6,23.31-20.72,23.31-38.34l-.43-48.93c0-.13-1.65-18.65,16.83-29.47C92.42,33.46,72.94,46.33,72.94,77.22Z"/><path class="cls-4" d="M82.73.77a80.18,80.18,0,0,0-58,135.54c6.34,6.13,36.09,3.82,42.27-7.14-12.9.13-21,2.31-24.45-3.89-3.54-6.38-.28-12.56-.62-14.62a3,3,0,0,0-2.77-2.85c-1.3-.23-2.37-2.62-.85-4.62s2.4-2.54,4.43-2.62,2.38.53,2.57.23-2.26-2.59-4-3.46-4.14-3-4.6-4.33a3.44,3.44,0,0,1,1.25-4c1.39-1,2.79-3.88,1.92-5.36S36.17,81,35.27,79.77s-4-5.55-1.85-8.7,8.67-6.92,11.31-9.43a66.47,66.47,0,0,0,6.93-7A9.69,9.69,0,0,1,45,51.07c-.1-.14.09-.27.21-.21A19,19,0,0,0,52.8,53c.57-1,1.14-1.95.94-2.78C50.25,35.43,52.38,21,61.33,8.15A75.93,75.93,0,1,1,95.23,155.9c-2-3.41-5.47-9.52-6.41-11-.29-.46-.58-1-.86-1.43a72.92,72.92,0,0,1-9-1.08l-2-.36a37.62,37.62,0,0,1-8.27,4.78,41.74,41.74,0,0,1-16.23,3.29c-.41,0-.8,0-1.21,0a42.61,42.61,0,0,1-13.37-2.58A80.22,80.22,0,1,0,82.73.77Z"/><path class="cls-4" d="M93.93,106.48c0,1.32-.09,2.62-.19,3.92,0,.58-.09,1.16-.16,1.74s-.16,1.16-.24,1.74Q93,116,92.56,118s0,0,0,.06A45.86,45.86,0,0,1,91.07,123l-.08.21c-.33.9-.67,1.79-1.06,2.66a40.83,40.83,0,0,1-10.21,14c14.46,2.62,25.63.7,33.16-5.81,11.82-10.21,11.42-28.69,11-34.12l0-.25c0-.07,0-6.55-4.29-10.79-2.51-2.49-5.93-4.58-10.47-3.75C96.74,87.91,94.24,92,94,98.41v2.2Z"/><path class="cls-4" d="M227.2,103.23v14.42l-1-.05-1,.07V103.23c-1.18,0-2,0-2.52,0s-1.31.11-2.44.23l.07-.68-.07-.68h11.68l-.07.68.07.68c-.56-.06-1.26-.12-2.12-.18S228.09,103.23,227.2,103.23Z"/><path class="cls-4" d="M235.31,117.65V106.8l.9.07.91-.09v2.29l.11-.27a5.94,5.94,0,0,1,1.27-1.5,2.56,2.56,0,0,1,1.58-.63,1.88,1.88,0,0,1,.71.11l-.32,1.9a2.42,2.42,0,0,1-.48-.19,1.49,1.49,0,0,0-.59-.17,2.3,2.3,0,0,0-.79.15,1.41,1.41,0,0,0-.65.42,3,3,0,0,0-.68,1.24,6.68,6.68,0,0,0-.16,1.63v5.87l-.91-.07Z"/><path class="cls-4" d="M252.22,115.32l0,1.16a7.55,7.55,0,0,1-1.86,1,6.07,6.07,0,0,1-2,.35,5.18,5.18,0,0,1-3.87-1.5,5.54,5.54,0,0,1-1.47-4.07,5.83,5.83,0,0,1,1.31-4,4.88,4.88,0,0,1,3.87-1.6,4.14,4.14,0,0,1,3.24,1.34,6,6,0,0,1,1.36,4.23l-4.6-.07H245a5.41,5.41,0,0,0,.93,3.29,3.5,3.5,0,0,0,3,1.4,4.07,4.07,0,0,0,2-.54A6.38,6.38,0,0,0,252.22,115.32Zm-7.27-4h6a5.44,5.44,0,0,0-.57-2.73,2.41,2.41,0,0,0-2.27-1.23,2.8,2.8,0,0,0-2.4,1.25A4.64,4.64,0,0,0,245,111.33Z"/><path class="cls-4" d="M264,110.47v5.91c0,.32.24.48.61.48a2.73,2.73,0,0,0,.65-.09v.49l-.32.13a2.93,2.93,0,0,1-.47.12,3.7,3.7,0,0,1-.62,0,1.72,1.72,0,0,1-1.07-.32,1.47,1.47,0,0,1-.51-1.06l-.2.2a4.62,4.62,0,0,1-3.36,1.43,3.16,3.16,0,0,1-2.14-.77,2.53,2.53,0,0,1-.88-2,2.62,2.62,0,0,1,1.29-2.47,9.55,9.55,0,0,1,2.89-.8,7.42,7.42,0,0,0,1.86-.45,1.09,1.09,0,0,0,.54-1.06,2.4,2.4,0,0,0-2.64-2.65,3.14,3.14,0,0,0-1.91.59,2,2,0,0,0-.79,1h-.25v-1.27a7.8,7.8,0,0,1,1.78-.93,5.56,5.56,0,0,1,1.87-.31C262.77,106.67,264,107.93,264,110.47Zm-1.82,4.82V112l-.79.16a15.41,15.41,0,0,0-2.49.61,2.21,2.21,0,0,0-.77,3.55,2.28,2.28,0,0,0,1.63.55,2.2,2.2,0,0,0,.95-.26,3.43,3.43,0,0,0,.86-.6l.4-.38Q262.18,115.41,262.18,115.29Z"/><path class="cls-4" d="M268.52,115.43h.19a3.7,3.7,0,0,0,1.13,1.2,2.57,2.57,0,0,0,1.47.48,2.3,2.3,0,0,0,1.54-.59,1.9,1.9,0,0,0,.68-1.47c0-.94-.89-1.67-2.67-2.18s-2.67-1.46-2.67-2.85a3,3,0,0,1,1-2.47,3.93,3.93,0,0,1,2.65-.88,5.66,5.66,0,0,1,1.5.19,4,4,0,0,1,1.05.4,10.75,10.75,0,0,0-.54,1.6h-.2a2.55,2.55,0,0,0-.77-1,1.81,1.81,0,0,0-1.16-.45,2.15,2.15,0,0,0-1.47.5,1.71,1.71,0,0,0-.59,1.38q0,1.35,2.67,2.22c1.79.57,2.68,1.49,2.68,2.76a3.18,3.18,0,0,1-1.34,2.69,4.59,4.59,0,0,1-2.83.89,6.1,6.1,0,0,1-1.48-.2,4.59,4.59,0,0,1-1.35-.53l.27-.82A5.26,5.26,0,0,0,268.52,115.43Z"/><path class="cls-4" d="M287.75,106.78v10.85l-.91-.07-.9.07v-1.95a3.77,3.77,0,0,1-3.6,2.13,3.61,3.61,0,0,1-2.82-1,4.93,4.93,0,0,1-.92-3.32V106.8l.91.07.9-.09v6.13a5.29,5.29,0,0,0,.62,2.85,2.38,2.38,0,0,0,2.12.94,2.43,2.43,0,0,0,2.27-1.22,5,5,0,0,0,.52-2.43V106.8l.9.07Z"/><path class="cls-4" d="M292.55,117.65V106.8l.9.07.91-.09v2.29l.11-.27a5.94,5.94,0,0,1,1.27-1.5,2.56,2.56,0,0,1,1.59-.63,1.86,1.86,0,0,1,.7.11l-.32,1.9a2.71,2.71,0,0,1-.47-.19,1.59,1.59,0,0,0-.59-.17,2.35,2.35,0,0,0-.8.15,1.41,1.41,0,0,0-.65.42,3,3,0,0,0-.68,1.24,6.68,6.68,0,0,0-.16,1.63v5.87l-.91-.07Z"/><path class="cls-4" d="M309.46,115.32l0,1.16a7.67,7.67,0,0,1-1.85,1,6.07,6.07,0,0,1-2,.35,5.21,5.21,0,0,1-3.88-1.5,5.54,5.54,0,0,1-1.47-4.07,5.79,5.79,0,0,1,1.32-4,4.85,4.85,0,0,1,3.87-1.6,4.17,4.17,0,0,1,3.24,1.34,6,6,0,0,1,1.36,4.23l-4.6-.07H302.2a5.48,5.48,0,0,0,.92,3.29,3.52,3.52,0,0,0,3,1.4,4.11,4.11,0,0,0,2-.54A6.34,6.34,0,0,0,309.46,115.32Zm-7.26-4h6a5.44,5.44,0,0,0-.57-2.73,2.41,2.41,0,0,0-2.26-1.23,2.8,2.8,0,0,0-2.4,1.25A4.56,4.56,0,0,0,302.2,111.33Z"/><path class="cls-4" d="M320.11,112.12a5.08,5.08,0,0,1,1.64-3.92,5.78,5.78,0,0,1,4.11-1.53,5.05,5.05,0,0,1,3.79,1.5,5.56,5.56,0,0,1,1.46,4,5.63,5.63,0,0,1-1.42,3.9,5.49,5.49,0,0,1-4.24,1.72,5.15,5.15,0,0,1-3.84-1.55A5.72,5.72,0,0,1,320.11,112.12Zm5.73-4.75a3.18,3.18,0,0,0-2.95,1.63,6.69,6.69,0,0,0-.79,3.46,5.78,5.78,0,0,0,.79,3.17,3,3,0,0,0,2.74,1.48,3,3,0,0,0,2.74-1.84,6.73,6.73,0,0,0,.75-3.19,6.43,6.43,0,0,0-.68-3.1A2.81,2.81,0,0,0,325.84,107.37Z"/><path class="cls-4" d="M335,117.65v-10h-1.56a1.51,1.51,0,0,0,0-.43,1.69,1.69,0,0,0,0-.43H335l0-.18a8.89,8.89,0,0,1,1.74-4.72,3.28,3.28,0,0,1,2.63-1.26h.45a6.91,6.91,0,0,0-.09.86c0,.36,0,.68,0,1l-.11.09-.46-.21a1.74,1.74,0,0,0-.46-.08l-.33,0a1.67,1.67,0,0,0-1.46.62,3,3,0,0,0-.44,1.73,6.11,6.11,0,0,0,.1,1.08c.07.39.16.77.26,1.14h2.27a2.4,2.4,0,0,0-.05.43,2,2,0,0,0,.05.43h-2.27v10l-.9-.07Z"/><path class="cls-4" d="M349.52,104.55l1.81-.7v2.93h2.4a3.5,3.5,0,0,0,0,.48,2,2,0,0,0,0,.38h-2.4v6.42a6.07,6.07,0,0,0,.23,2,1.44,1.44,0,0,0,1.45,1,3,3,0,0,0,.55-.07,3.63,3.63,0,0,1,.47-.09v.54a7.7,7.7,0,0,1-1,.31,4.4,4.4,0,0,1-.92.1,2.35,2.35,0,0,1-1.95-.73,4.61,4.61,0,0,1-.66-2.84v-6.6h-1.4a1.51,1.51,0,0,0,0-.43,1.69,1.69,0,0,0,0-.43h1.4Z"/><path class="cls-4" d="M357.06,117.65v-17l.91.07.9-.07v8.24a4.5,4.5,0,0,1,1.53-1.62,4,4,0,0,1,2.12-.57,3.29,3.29,0,0,1,2.78,1.1,5.26,5.26,0,0,1,.87,3.31v6.55l-.91-.07-.91.09v-6a5.58,5.58,0,0,0-.52-2.81,2.14,2.14,0,0,0-2-1q-3,0-3,3.63v6.16l-.9-.07Z"/><path class="cls-4" d="M379.07,115.32l0,1.16a7.55,7.55,0,0,1-1.86,1,6.07,6.07,0,0,1-2,.35,5.18,5.18,0,0,1-3.87-1.5,5.54,5.54,0,0,1-1.47-4.07,5.83,5.83,0,0,1,1.31-4,4.89,4.89,0,0,1,3.88-1.6,4.13,4.13,0,0,1,3.23,1.34,6,6,0,0,1,1.36,4.23l-4.59-.07h-3.2a5.41,5.41,0,0,0,.93,3.29,3.52,3.52,0,0,0,3,1.4,4.14,4.14,0,0,0,2-.54A6.6,6.6,0,0,0,379.07,115.32Zm-7.27-4h6a5.44,5.44,0,0,0-.57-2.73,2.41,2.41,0,0,0-2.26-1.23,2.77,2.77,0,0,0-2.4,1.25A4.57,4.57,0,0,0,371.8,111.33Z"/><path class="cls-4" d="M391,117.56V102.14h4.55a8,8,0,0,1,3.83.7,2.57,2.57,0,0,1,1.22,2.42,3.59,3.59,0,0,1-1,2.57,5.18,5.18,0,0,1-2.57,1.44,4.73,4.73,0,0,1,2.72.79,3.16,3.16,0,0,1,1.43,2.77,4.4,4.4,0,0,1-2,3.82,5.21,5.21,0,0,1-2.29.8,21.77,21.77,0,0,1-2.49.11ZM393,103v6h1a13.91,13.91,0,0,0,1.6-.08,4.51,4.51,0,0,0,1.28-.37,2.76,2.76,0,0,0,1.74-2.74,2.36,2.36,0,0,0-1-2.14,5.32,5.32,0,0,0-2.87-.62Zm0,6.83v6.91h2.27a3.91,3.91,0,0,0,2.74-1,3.28,3.28,0,0,0,1.06-2.54,2.93,2.93,0,0,0-1.31-2.69,6.49,6.49,0,0,0-3.38-.71Z"/><path class="cls-4" d="M413.51,115.32l0,1.16a7.55,7.55,0,0,1-1.86,1,6.06,6.06,0,0,1-2,.35,5.21,5.21,0,0,1-3.88-1.5,5.54,5.54,0,0,1-1.47-4.07,5.79,5.79,0,0,1,1.32-4,4.85,4.85,0,0,1,3.87-1.6,4.17,4.17,0,0,1,3.24,1.34,6,6,0,0,1,1.35,4.23l-4.59-.07h-3.2a5.41,5.41,0,0,0,.93,3.29,3.52,3.52,0,0,0,3,1.4,4.11,4.11,0,0,0,2-.54A6.34,6.34,0,0,0,413.51,115.32Zm-7.27-4h6a5.44,5.44,0,0,0-.57-2.73,2.41,2.41,0,0,0-2.26-1.23,2.8,2.8,0,0,0-2.4,1.25A4.57,4.57,0,0,0,406.24,111.33Z"/><path class="cls-4" d="M425.29,110.47v5.91c0,.32.25.48.61.48a2.8,2.8,0,0,0,.66-.09v.49l-.33.13a2.93,2.93,0,0,1-.47.12,3.61,3.61,0,0,1-.62,0,1.74,1.74,0,0,1-1.07-.32,1.46,1.46,0,0,1-.5-1.06l-.21.2a4.6,4.6,0,0,1-3.36,1.43,3.18,3.18,0,0,1-2.14-.77,2.53,2.53,0,0,1-.88-2,2.62,2.62,0,0,1,1.29-2.47,9.64,9.64,0,0,1,2.9-.8,7.3,7.3,0,0,0,1.85-.45,1.08,1.08,0,0,0,.55-1.06,2.4,2.4,0,0,0-2.65-2.65,3.09,3.09,0,0,0-1.9.59,1.93,1.93,0,0,0-.8,1H418v-1.27a8,8,0,0,1,1.78-.93,5.6,5.6,0,0,1,1.87-.31C424.07,106.67,425.29,107.93,425.29,110.47Zm-1.81,4.82V112l-.8.16a15.41,15.41,0,0,0-2.49.61,2.21,2.21,0,0,0-.77,3.55,2.3,2.3,0,0,0,1.63.55,2.16,2.16,0,0,0,.95-.26,3.69,3.69,0,0,0,.87-.6c.12-.11.25-.23.39-.38S423.48,115.37,423.48,115.29Z"/><path class="cls-4" d="M439.1,106.78v10.85l-.9-.07-.91.07v-1.95a3.77,3.77,0,0,1-3.6,2.13,3.61,3.61,0,0,1-2.82-1,4.93,4.93,0,0,1-.92-3.32V106.8l.91.07.91-.09v6.13a5.2,5.2,0,0,0,.62,2.85,2.36,2.36,0,0,0,2.12.94,2.42,2.42,0,0,0,2.26-1.22,4.87,4.87,0,0,0,.52-2.43V106.8l.91.07Z"/><path class="cls-4" d="M443.74,104.55l1.82-.7v2.93H448a3.89,3.89,0,0,0,0,.48,2.09,2.09,0,0,0,0,.38h-2.4v6.42a6.14,6.14,0,0,0,.22,2,1.44,1.44,0,0,0,1.45,1,3.05,3.05,0,0,0,.56-.07,3.26,3.26,0,0,1,.46-.09v.54a8.13,8.13,0,0,1-1,.31,4.57,4.57,0,0,1-.93.1,2.35,2.35,0,0,1-2-.73,4.61,4.61,0,0,1-.66-2.84v-6.6h-1.4a1.43,1.43,0,0,0,.05-.43,1.63,1.63,0,0,0-.05-.43h1.4Z"/><path class="cls-4" d="M454.7,117.54l-4.57-10.76,1.09.09,1.06-.07c.41,1.26.9,2.59,1.46,4s1.21,2.88,1.91,4.4c.49-1,1.07-2.32,1.75-4,.56-1.39,1.11-2.84,1.65-4.37l.75.07.72-.07q-1.06,2.39-2.58,5.72c-.93,2.07-1.75,3.9-2.44,5.48-.92,2.11-1.69,3.92-2.29,5.45l-.77-.09-.77.09Z"/><path class="cls-4" d="M212.91,68.17c3.66,1.93,5.5,5.16,5.5,9.66q0,6-4.17,9t-10.93,3H187.25a.69.69,0,0,1-.51-.21.67.67,0,0,1-.22-.51V48.25a.67.67,0,0,1,.22-.52.69.69,0,0,1,.51-.21h15.58q7.36,0,11.14,2.78t3.77,9q0,5.91-4.83,8.51Q212.55,68,212.91,68.17ZM196.55,56.4V64a.27.27,0,0,0,.3.3h6a5.93,5.93,0,0,0,3.8-1.06,3.58,3.58,0,0,0,1.33-3,3.75,3.75,0,0,0-1.33-3.08,5.87,5.87,0,0,0-3.8-1.08h-6A.27.27,0,0,0,196.55,56.4ZM207.05,80a4,4,0,0,0,1.33-3.23,3.93,3.93,0,0,0-1.3-3.17,5.58,5.58,0,0,0-3.77-1.12h-6.46a.27.27,0,0,0-.3.3v8a.27.27,0,0,0,.3.3h6.46A5.66,5.66,0,0,0,207.05,80Z"/><path class="cls-4" d="M229.73,88.43a13.6,13.6,0,0,1-5.68-5.22,14.88,14.88,0,0,1-2-7.79V48.25a.72.72,0,0,1,.72-.73h8.58a.72.72,0,0,1,.72.73V75.42A6.33,6.33,0,0,0,233.71,80a5.92,5.92,0,0,0,4.44,1.72A5.84,5.84,0,0,0,242.53,80a6.29,6.29,0,0,0,1.66-4.56V48.25a.72.72,0,0,1,.72-.73h8.58a.72.72,0,0,1,.72.73V75.42a15,15,0,0,1-2,7.79,13.44,13.44,0,0,1-5.64,5.22,20.21,20.21,0,0,1-16.85,0Z"/><path class="cls-4" d="M288.18,55.88a.67.67,0,0,1-.51.22h-19c-.21,0-.31.1-.31.3v7.42a.27.27,0,0,0,.31.31h12.13a.73.73,0,0,1,.52.21.69.69,0,0,1,.21.51v7.07a.69.69,0,0,1-.21.51.73.73,0,0,1-.52.21H268.71c-.21,0-.31.1-.31.3v8a.27.27,0,0,0,.31.31h19a.72.72,0,0,1,.72.72v7.13a.72.72,0,0,1-.72.72H259.1a.72.72,0,0,1-.72-.72V48.25a.72.72,0,0,1,.72-.73h28.57a.72.72,0,0,1,.72.73v7.12A.69.69,0,0,1,288.18,55.88Z"/><path class="cls-4" d="M322.78,47.73a.7.7,0,0,1,.21.52v7.18a.69.69,0,0,1-.21.51.67.67,0,0,1-.51.22H311.7a.27.27,0,0,0-.3.3V89.07a.67.67,0,0,1-.22.51.69.69,0,0,1-.51.21H302.1a.72.72,0,0,1-.52-.21.69.69,0,0,1-.21-.51V56.46a.27.27,0,0,0-.3-.3h-10.2a.67.67,0,0,1-.52-.22.69.69,0,0,1-.21-.51V48.25a.72.72,0,0,1,.73-.73h31.4A.69.69,0,0,1,322.78,47.73Z"/><path class="cls-4" d="M355.63,55.88a.67.67,0,0,1-.52.22h-19a.27.27,0,0,0-.3.3v7.42c0,.21.1.31.3.31h12.14a.69.69,0,0,1,.51.21.7.7,0,0,1,.22.51v7.07a.7.7,0,0,1-.22.51.69.69,0,0,1-.51.21H336.15a.27.27,0,0,0-.3.3v8c0,.21.1.31.3.31h19a.72.72,0,0,1,.73.72v7.13a.72.72,0,0,1-.73.72H326.55a.72.72,0,0,1-.72-.72V48.25a.72.72,0,0,1,.72-.73h28.56a.72.72,0,0,1,.73.73v7.12A.69.69,0,0,1,355.63,55.88Z"/><path class="cls-3" d="M363.3,87.19a9.87,9.87,0,0,1-4-8.21V77.11a.53.53,0,0,1,.61-.6h2.95a.53.53,0,0,1,.61.6v1.63a6.69,6.69,0,0,0,2.9,5.65c1.93,1.43,4.6,2.14,8,2.14q4.65,0,7.06-2a6.4,6.4,0,0,0,2.42-5.23,6,6,0,0,0-1.12-3.62,10.93,10.93,0,0,0-3.44-2.84,62.75,62.75,0,0,0-6.55-3.08,69.61,69.61,0,0,1-7-3.17,11.68,11.68,0,0,1-4-3.5,9,9,0,0,1-1.54-5.4,9.46,9.46,0,0,1,3.53-7.88C366.07,48,369.31,47,373.41,47q6.7,0,10.57,3.14a10.21,10.21,0,0,1,3.86,8.33v1.33a.53.53,0,0,1-.6.6h-3a.53.53,0,0,1-.6-.6V58.75A7.07,7.07,0,0,0,380.87,53q-2.75-2.24-7.64-2.24a10.72,10.72,0,0,0-6.58,1.75,6,6,0,0,0-2.3,5.08,5.62,5.62,0,0,0,1.12,3.59,9.34,9.34,0,0,0,3.2,2.47c1.39.71,3.53,1.62,6.43,2.75a60.64,60.64,0,0,1,7.1,3.38,14.1,14.1,0,0,1,4.34,3.84,9.06,9.06,0,0,1,1.66,5.52,9.84,9.84,0,0,1-3.74,8.09q-3.75,3-10.38,3Q367.26,90.27,363.3,87.19Z"/><path class="cls-3" d="M420.27,47.52h3.08a.53.53,0,0,1,.6.6V89.19a.53.53,0,0,1-.6.6h-3.08a.53.53,0,0,1-.6-.6V70.65a.22.22,0,0,0-.25-.24H400.16a.21.21,0,0,0-.24.24V89.19a.53.53,0,0,1-.6.6h-3.08a.53.53,0,0,1-.61-.6V48.12a.53.53,0,0,1,.61-.6h3.08a.53.53,0,0,1,.6.6v18.3a.21.21,0,0,0,.24.24h19.26a.22.22,0,0,0,.25-.24V48.12A.53.53,0,0,1,420.27,47.52Z"/><path class="cls-3" d="M439.11,88.52a12.32,12.32,0,0,1-5-4.92,14.69,14.69,0,0,1-1.78-7.34V61.05a14.69,14.69,0,0,1,1.78-7.34,12.38,12.38,0,0,1,5-4.92A15.67,15.67,0,0,1,446.66,47a15.91,15.91,0,0,1,7.58,1.75,12.39,12.39,0,0,1,5.07,4.92,14.8,14.8,0,0,1,1.78,7.34V76.26a14.8,14.8,0,0,1-1.78,7.34,12.33,12.33,0,0,1-5.07,4.92,15.91,15.91,0,0,1-7.58,1.75A15.67,15.67,0,0,1,439.11,88.52ZM454,83.81a10,10,0,0,0,2.78-7.36V61a10.07,10.07,0,0,0-2.78-7.4,11,11,0,0,0-14.67,0,10.07,10.07,0,0,0-2.78,7.4V76.45A10.38,10.38,0,0,0,454,83.81Z"/><path class="cls-3" d="M494.27,50.72a11.68,11.68,0,0,1,3.23,8.58,11.26,11.26,0,0,1-3.29,8.45,11.92,11.92,0,0,1-8.67,3.2H473.77a.21.21,0,0,0-.24.24v18a.54.54,0,0,1-.61.6h-3.08a.53.53,0,0,1-.6-.6V48.06a.53.53,0,0,1,.6-.6h15.88A11.52,11.52,0,0,1,494.27,50.72ZM491,65.18a7.81,7.81,0,0,0,2.23-5.82A8,8,0,0,0,491,53.44a7.85,7.85,0,0,0-5.8-2.24H473.77a.22.22,0,0,0-.24.25v15.7a.21.21,0,0,0,.24.24h11.47A7.9,7.9,0,0,0,491,65.18Z"/></svg>