<?xml version="1.0" encoding="utf-8"?>
<!-- Generator: Adobe Illustrator 25.4.1, SVG Export Plug-In . SVG Version: 6.00 Build 0)  -->
<svg width="26px" height="26px"  version="1.1" id="Layer_1" xmlns="http://www.w3.org/2000/svg" xmlns:xlink="http://www.w3.org/1999/xlink" x="0px" y="0px"
	 viewBox="0 0 56.5 52" style="enable-background:new 0 0 56.5 52;" xml:space="preserve">
<style type="text/css">
	.st0{fill:url(#SVGID_1_);}
	.st1{display:none;fill:#FCFCFC;}
	.st2{display:none;fill:#FFFFFF;}
	.st3{fill:#FFFFFF;}
</style>
<linearGradient id="SVGID_1_" gradientUnits="userSpaceOnUse" x1="44.3196" y1="42.3066" x2="12.3224" y2="10.3094">
	<stop  offset="0" style="stop-color:#4F5BD5"/>
	<stop  offset="1" style="stop-color:#D62976"/>
</linearGradient>
<circle class="st0" cx="28.3" cy="26.3" r="22.6"/>
<path class="st1" d="M36.6,13H41l-9.6,11l11.3,15h-8.9l-7-9.1l-8,9.1h-4.4l10.3-11.8L13.9,13H23l6.3,8.3L36.6,13z M35,36.4h2.4
	L21.7,15.5h-2.6L35,36.4z"/>
<path class="st2" d="M32.3,17h5v-6h-5c-3.9,0-7,3.1-7,7v3h-4v6h4v16h6V27h5l1-6h-6v-3C31.3,17.5,31.7,17,32.3,17z"/>
<path class="st2" d="M23.4,15.2H29v3.6h0.1c0.8-1.8,2.7-3.6,5.5-3.6c5.8,0,6.9,4.6,6.9,10.7v12.3h-5.8V27.3c0-2.6,0-6-3-6
	c-3,0-3.5,2.8-3.5,5.8v11.1h-5.8V15.2z"/>
<path class="st2" d="M13.4,20.2h6v18h-6V20.2z"/>
<path class="st2" d="M19.4,14.6c0.4,2.1-1.4,3.9-3.5,3.5c-1.2-0.2-2.1-1.2-2.4-2.4c-0.4-2.1,1.4-3.9,3.5-3.5
	C18.2,12.5,19.2,13.4,19.4,14.6z"/>
<path class="st3" d="M32.5,26.5c0-2.2-1.8-4-4-4s-4,1.8-4,4s1.8,4,4,4S32.5,28.7,32.5,26.5z M34.7,26.5c0,3.4-2.8,6.2-6.2,6.2
	s-6.2-2.8-6.2-6.2c0-3.4,2.8-6.2,6.2-6.2S34.7,23.1,34.7,26.5z M36.4,20.1c0,0.8-0.6,1.4-1.4,1.4c-0.8,0-1.4-0.6-1.4-1.4
	c0-0.8,0.6-1.4,1.4-1.4C35.8,18.7,36.4,19.3,36.4,20.1z M28.5,16.7c-1.8,0-5.5-0.1-7.1,0.5c-0.5,0.2-1,0.5-1.4,0.9
	c-0.4,0.4-0.7,0.8-0.9,1.4c-0.6,1.6-0.5,5.3-0.5,7.1s-0.1,5.5,0.5,7.1c0.2,0.5,0.5,1,0.9,1.4c0.4,0.4,0.8,0.7,1.4,0.9
	c1.6,0.6,5.3,0.5,7.1,0.5s5.5,0.1,7.1-0.5c0.5-0.2,1-0.5,1.4-0.9s0.7-0.8,0.9-1.4c0.6-1.6,0.5-5.3,0.5-7.1s0.1-5.5-0.5-7.1
	c-0.2-0.5-0.5-1-0.9-1.4c-0.4-0.4-0.8-0.7-1.4-0.9C34,16.5,30.3,16.7,28.5,16.7z M40.5,26.5c0,1.7,0,3.3-0.1,5
	c-0.1,1.9-0.5,3.6-1.9,5c-1.4,1.4-3.1,1.8-5,1.9c-1.7,0.1-3.3,0.1-5,0.1s-3.3,0-5-0.1c-1.9-0.1-3.6-0.5-5-1.9
	c-1.4-1.4-1.8-3.1-1.9-5c-0.1-1.7-0.1-3.3-0.1-5s0-3.3,0.1-5c0.1-1.9,0.5-3.6,1.9-5c1.4-1.4,3.1-1.8,5-1.9c1.7-0.1,3.3-0.1,5-0.1
	s3.3,0,5,0.1c1.9,0.1,3.6,0.5,5,1.9c1.4,1.4,1.8,3.1,1.9,5C40.6,23.2,40.5,24.8,40.5,26.5z"/>
</svg>
